<?xml version="1.0" encoding="utf-8"?>
<!-- Generator: Adobe Illustrator 16.0.0, SVG Export Plug-In . SVG Version: 6.00 Build 0)  -->
<!DOCTYPE svg PUBLIC "-//W3C//DTD SVG 1.1//EN" "http://www.w3.org/Graphics/SVG/1.1/DTD/svg11.dtd">
<svg version="1.1" id="Calque_1" xmlns="http://www.w3.org/2000/svg" xmlns:xlink="http://www.w3.org/1999/xlink" x="0px" y="0px"
	 width="48px" height="48px" viewBox="0 0 48 48" enable-background="new 0 0 48 48" xml:space="preserve">
<g>
	<g>
		<g>
			<defs>
				<path id="SVGID_1_" d="M47.441,19.629H24.559v9.27H37.73c-1.229,5.891-6.362,9.271-13.172,9.271
					c-8.037,0-14.512-6.325-14.512-14.178c0-7.851,6.475-14.176,14.512-14.176c3.459,0,6.586,1.199,9.041,3.162l7.146-6.979
					C36.391,2.291,30.809,0,24.559,0C10.939,0,0,10.688,0,23.991c0,13.307,10.939,23.991,24.559,23.991
					C36.836,47.982,48,39.261,48,23.991C48,22.574,47.775,21.048,47.441,19.629z"/>
			</defs>
			<clipPath id="SVGID_2_">
				<use xlink:href="#SVGID_1_"  overflow="visible"/>
			</clipPath>
			<path clip-path="url(#SVGID_2_)" fill="#FBBC0C" d="M-2.232,38.169V9.815l18.977,14.176L-2.232,38.169z"/>
		</g>
	</g>
	<g>
		<g>
			<defs>
				<path id="SVGID_3_" d="M47.441,19.629H24.559v9.27H37.73c-1.229,5.891-6.362,9.271-13.172,9.271
					c-8.037,0-14.512-6.325-14.512-14.178c0-7.851,6.475-14.176,14.512-14.176c3.459,0,6.586,1.199,9.041,3.162l7.146-6.979
					C36.391,2.291,30.809,0,24.559,0C10.939,0,0,10.688,0,23.991c0,13.307,10.939,23.991,24.559,23.991
					C36.836,47.982,48,39.261,48,23.991C48,22.574,47.775,21.048,47.441,19.629z"/>
			</defs>
			<clipPath id="SVGID_4_">
				<use xlink:href="#SVGID_3_"  overflow="visible"/>
			</clipPath>
			<path clip-path="url(#SVGID_4_)" fill="#E84436" d="M-2.232,9.815l18.977,14.176l7.813-6.651l26.791-4.252V-2.181H-2.232V9.815z"
				/>
		</g>
	</g>
	<g>
		<g>
			<defs>
				<path id="SVGID_5_" d="M47.441,19.629H24.559v9.27H37.73c-1.229,5.891-6.362,9.271-13.172,9.271
					c-8.037,0-14.512-6.325-14.512-14.178c0-7.851,6.475-14.176,14.512-14.176c3.459,0,6.586,1.199,9.041,3.162l7.146-6.979
					C36.391,2.291,30.809,0,24.559,0C10.939,0,0,10.688,0,23.991c0,13.307,10.939,23.991,24.559,23.991
					C36.836,47.982,48,39.261,48,23.991C48,22.574,47.775,21.048,47.441,19.629z"/>
			</defs>
			<clipPath id="SVGID_6_">
				<use xlink:href="#SVGID_5_"  overflow="visible"/>
			</clipPath>
			<path clip-path="url(#SVGID_6_)" fill="#34A953" d="M-2.232,38.169l33.49-25.082l8.814,1.089L51.35-2.181v52.346H-2.232V38.169z"
				/>
		</g>
	</g>
	<g>
		<g>
			<defs>
				<path id="SVGID_7_" d="M47.441,19.629H24.559v9.27H37.73c-1.229,5.891-6.362,9.271-13.172,9.271
					c-8.037,0-14.512-6.325-14.512-14.178c0-7.851,6.475-14.176,14.512-14.176c3.459,0,6.586,1.199,9.041,3.162l7.146-6.979
					C36.391,2.291,30.809,0,24.559,0C10.939,0,0,10.688,0,23.991c0,13.307,10.939,23.991,24.559,23.991
					C36.836,47.982,48,39.261,48,23.991C48,22.574,47.775,21.048,47.441,19.629z"/>
			</defs>
			<clipPath id="SVGID_8_">
				<use xlink:href="#SVGID_7_"  overflow="visible"/>
			</clipPath>
			<path clip-path="url(#SVGID_8_)" fill="#527BBD" d="M51.35,50.165L16.744,23.991l-4.464-3.27L51.35,9.815V50.165z"/>
		</g>
	</g>
</g>
<g>
	<path fill="#E52620" d="M47.432,17.951c-0.304-1.114-1.179-1.984-2.299-2.285c-2.012-0.547-10.119-0.547-10.119-0.547
		s-8.105,0.017-10.121,0.563c-1.12,0.301-1.994,1.171-2.296,2.284c-0.608,3.56-0.845,8.979,0.016,12.396
		c0.304,1.115,1.178,1.984,2.298,2.285c2.013,0.547,10.119,0.547,10.119,0.547s8.107,0,10.121-0.547
		c1.119-0.301,1.994-1.17,2.297-2.285C48.09,26.8,48.289,21.382,47.432,17.951z"/>
	<path fill="#FFFFFF" d="M32.434,28.029l6.726-3.873l-6.726-3.873V28.029z"/>
</g>
</svg>
